<svg width="23" height="74" viewBox="0 0 23 74" fill="none" xmlns="http://www.w3.org/2000/svg">
<path d="M1.24037 3.39935V4.2743H3.11895V5.09264H0.339687V0.949487H3.05719V1.76782H1.24037V2.58102H2.9594V3.39935H1.24037ZM5.73648 3.53832L6.87392 5.09264H5.82913L5.24754 4.1971L4.6814 5.09264H3.63145L4.78433 3.51258L3.72409 2.02002H4.74316L5.27327 2.85894L5.78281 2.02002H6.80187L5.73648 3.53832ZM7.49917 6.37419V2.02002H8.36898V2.38544H8.39986C8.4925 2.24819 8.61088 2.14182 8.75499 2.06634C8.8991 1.98742 9.05179 1.94796 9.21305 1.94796C9.45667 1.94796 9.6694 2.01315 9.85125 2.14354C10.0365 2.27049 10.1789 2.45235 10.2784 2.6891C10.3779 2.92585 10.4277 3.20378 10.4277 3.52288C10.4277 3.8557 10.3779 4.14564 10.2784 4.39268C10.1789 4.63973 10.0365 4.83016 9.85125 4.96397C9.66597 5.09779 9.4498 5.1647 9.20276 5.1647C9.03806 5.1647 8.88537 5.12524 8.74469 5.04632C8.60745 4.97083 8.4925 4.86447 8.39986 4.72722H8.36898V6.37419H7.49917ZM8.34839 3.5589C8.34839 3.79909 8.40158 3.99123 8.50794 4.13534C8.61431 4.27602 8.75499 4.34636 8.92998 4.34636C9.11526 4.34636 9.2628 4.27602 9.3726 4.13534C9.4824 3.99123 9.5373 3.79909 9.5373 3.5589C9.5373 3.31529 9.48411 3.12314 9.37775 2.98246C9.27138 2.83835 9.12899 2.7663 8.95057 2.7663C8.76871 2.7663 8.62289 2.83835 8.51309 2.98246C8.40329 3.12314 8.34839 3.31529 8.34839 3.5589ZM11.1799 0.949487H12.0497V4.08902C12.0497 4.21254 12.1115 4.2743 12.235 4.2743H12.3843V5.09779H11.9571C11.7066 5.09779 11.5145 5.03603 11.3806 4.9125C11.2468 4.78898 11.1799 4.61056 11.1799 4.37724V0.949487ZM14.3849 5.1647C14.0829 5.1647 13.8204 5.0995 13.5974 4.96912C13.3744 4.83873 13.2028 4.65173 13.0827 4.40812C12.9627 4.16451 12.9026 3.87972 12.9026 3.55376C12.9026 3.22779 12.9627 2.94472 13.0827 2.70454C13.2028 2.46092 13.3744 2.27392 13.5974 2.14354C13.8204 2.01315 14.0829 1.94796 14.3849 1.94796C14.6868 1.94796 14.9493 2.01315 15.1723 2.14354C15.3954 2.27392 15.5669 2.46092 15.687 2.70454C15.8071 2.94472 15.8671 3.22779 15.8671 3.55376C15.8671 3.87972 15.8071 4.16451 15.687 4.40812C15.5669 4.65173 15.3954 4.83873 15.1723 4.96912C14.9493 5.0995 14.6868 5.1647 14.3849 5.1647ZM14.3849 4.34121C14.5667 4.34121 14.7108 4.27087 14.8172 4.13019C14.9236 3.98952 14.9768 3.79737 14.9768 3.55376C14.9768 3.31357 14.9236 3.12314 14.8172 2.98246C14.7108 2.84179 14.5667 2.77145 14.3849 2.77145C14.203 2.77145 14.0589 2.84179 13.9525 2.98246C13.8462 3.12314 13.793 3.31357 13.793 3.55376C13.793 3.79737 13.8462 3.98952 13.9525 4.13019C14.0589 4.27087 14.203 4.34121 14.3849 4.34121ZM16.6678 5.09264L16.6214 2.02002H17.5376V2.57587H17.5684C17.7846 2.15726 18.1603 1.94796 18.6956 1.94796H18.7265V2.79718H18.6801C18.2787 2.79718 17.987 2.86409 17.8052 2.9979C17.6268 3.12829 17.5376 3.3273 17.5376 3.59493V5.09264H16.6678ZM22.0914 3.33759C22.0914 3.55376 22.0691 3.73904 22.0245 3.89344H20.0996C20.1648 4.26401 20.3741 4.44929 20.7275 4.44929C20.851 4.44929 20.9626 4.41327 21.0621 4.34121C21.1616 4.26916 21.2405 4.16965 21.2988 4.0427L22.0142 4.35151C21.9113 4.60884 21.7466 4.80957 21.5201 4.95368C21.2971 5.09436 21.0312 5.1647 20.7224 5.1647C20.4136 5.1647 20.1425 5.10122 19.9092 4.97427C19.6759 4.84388 19.4957 4.66031 19.3688 4.42356C19.2452 4.18338 19.1835 3.90374 19.1835 3.58464C19.1835 3.25181 19.2452 2.96359 19.3688 2.71998C19.4923 2.47293 19.6656 2.2825 19.8886 2.14869C20.115 2.01487 20.3792 1.94796 20.6812 1.94796C20.9626 1.94796 21.2096 2.00458 21.4223 2.11781C21.6351 2.23103 21.7998 2.3923 21.9164 2.6016C22.0331 2.8109 22.0914 3.05623 22.0914 3.33759ZM21.2062 3.17804C21.2062 3.02364 21.1581 2.8984 21.0621 2.80233C20.9694 2.70625 20.8425 2.65822 20.6812 2.65822C20.3861 2.65822 20.1974 2.83149 20.115 3.17804H21.2062Z" fill="black"/>
<path d="M2.16961 28.2079C1.69325 28.2079 1.27752 28.0909 0.922411 27.8571C0.567304 27.6189 0.300975 27.3049 0.123421 26.9152L1.11079 26.454C1.20173 26.6878 1.34031 26.8654 1.52653 26.9866C1.71274 27.1079 1.92927 27.1685 2.17611 27.1685C2.43161 27.1685 2.63515 27.1209 2.78672 27.0256C2.93829 26.9303 3.01408 26.8069 3.01408 26.6554C3.01408 26.5471 2.98593 26.4583 2.92963 26.389C2.87333 26.3154 2.77589 26.2483 2.63732 26.1877C2.49874 26.127 2.29737 26.0599 2.0332 25.9863C1.68676 25.8867 1.39877 25.7871 1.16925 25.6875C0.939733 25.5879 0.736197 25.4341 0.558643 25.2263C0.385421 25.0141 0.298809 24.7348 0.298809 24.3883C0.298809 24.0852 0.383255 23.8123 0.552147 23.5698C0.72537 23.3273 0.959221 23.1389 1.2537 23.0047C1.55251 22.8661 1.88163 22.7968 2.24107 22.7968C3.14616 22.7968 3.79791 23.2082 4.19632 24.031L3.22194 24.5052C3.10935 24.2714 2.97077 24.1025 2.80621 23.9986C2.64598 23.8903 2.45327 23.8362 2.22808 23.8362C2.01155 23.8362 1.82967 23.8838 1.68243 23.9791C1.53519 24.0743 1.46157 24.1913 1.46157 24.3298C1.46157 24.4468 1.49188 24.542 1.55251 24.6157C1.61314 24.6849 1.71057 24.7499 1.84482 24.8105C1.9834 24.8668 2.18694 24.9318 2.45543 25.0054C2.79755 25.1007 3.08336 25.1981 3.31289 25.2977C3.54241 25.393 3.74378 25.5467 3.917 25.7589C4.09022 25.9668 4.17683 26.244 4.17683 26.5904C4.17683 26.9152 4.09022 27.201 3.917 27.4479C3.74811 27.6904 3.51209 27.8766 3.20895 28.0065C2.90581 28.1407 2.55937 28.2079 2.16961 28.2079ZM6.87043 28.2079C6.48934 28.2079 6.15805 28.1256 5.87656 27.961C5.59508 27.7965 5.37855 27.5604 5.22698 27.253C5.07541 26.9455 4.99962 26.5861 4.99962 26.1747C4.99962 25.7633 5.07541 25.406 5.22698 25.1028C5.37855 24.7954 5.59508 24.5594 5.87656 24.3948C6.15805 24.2302 6.48934 24.148 6.87043 24.148C7.25152 24.148 7.58281 24.2302 7.8643 24.3948C8.14578 24.5594 8.36231 24.7954 8.51388 25.1028C8.66545 25.406 8.74124 25.7633 8.74124 26.1747C8.74124 26.5861 8.66545 26.9455 8.51388 27.253C8.36231 27.5604 8.14578 27.7965 7.8643 27.961C7.58281 28.1256 7.25152 28.2079 6.87043 28.2079ZM6.87043 27.1685C7.09995 27.1685 7.28183 27.0798 7.41608 26.9022C7.55033 26.7246 7.61745 26.4821 7.61745 26.1747C7.61745 25.8715 7.55033 25.6312 7.41608 25.4536C7.28183 25.2761 7.09995 25.1873 6.87043 25.1873C6.64091 25.1873 6.45903 25.2761 6.32478 25.4536C6.19053 25.6312 6.12341 25.8715 6.12341 26.1747C6.12341 26.4821 6.19053 26.7246 6.32478 26.9022C6.45903 27.0798 6.64091 27.1685 6.87043 27.1685ZM9.69323 28.1169V24.2389H10.791V24.7456H10.8235C10.9361 24.5594 11.0833 24.4143 11.2652 24.3104C11.4514 24.2021 11.6636 24.148 11.9018 24.148C12.2872 24.148 12.5861 24.2735 12.7983 24.5247C13.0148 24.7716 13.123 25.1245 13.123 25.5835V28.1169H12.0252V25.8369C12.0252 25.6377 11.9754 25.4818 11.8758 25.3692C11.7762 25.2523 11.6398 25.1938 11.4666 25.1938C11.2631 25.1938 11.0985 25.2588 10.9729 25.3887C10.8517 25.5143 10.791 25.6875 10.791 25.9083V28.1169H9.69323ZM15.9208 29.8253C15.4834 29.8253 15.1088 29.7301 14.797 29.5395C14.4852 29.349 14.2622 29.0891 14.1279 28.76L15.0633 28.3638C15.1413 28.5327 15.2517 28.6626 15.3946 28.7535C15.5375 28.8488 15.6999 28.8964 15.8818 28.8964C16.1157 28.8964 16.2975 28.825 16.4275 28.6821C16.5617 28.5392 16.6288 28.3443 16.6288 28.0974V27.5973H16.5898C16.4946 27.7705 16.3625 27.9047 16.1936 28C16.0247 28.0996 15.8428 28.1494 15.648 28.1494C15.3232 28.1494 15.0395 28.0671 14.797 27.9026C14.5545 27.7337 14.3661 27.4955 14.2319 27.188C14.1019 26.8805 14.037 26.5211 14.037 26.1097C14.037 25.7113 14.0998 25.3648 14.2254 25.0704C14.3553 24.7759 14.5372 24.5485 14.771 24.3883C15.0049 24.2281 15.2777 24.148 15.5895 24.148C15.7974 24.148 15.9879 24.1956 16.1611 24.2909C16.3387 24.3861 16.4816 24.5226 16.5898 24.7001H16.6288V24.2389H17.7331V27.922C17.7331 28.3075 17.6617 28.6431 17.5188 28.9289C17.3758 29.2147 17.168 29.4356 16.8952 29.5915C16.6223 29.7474 16.2975 29.8253 15.9208 29.8253ZM15.9208 27.1166C16.146 27.1166 16.3235 27.03 16.4534 26.8567C16.5877 26.6792 16.6548 26.4432 16.6548 26.1487C16.6548 25.8542 16.5855 25.6204 16.4469 25.4471C16.3127 25.2696 16.1286 25.1808 15.8948 25.1808C15.6739 25.1808 15.4964 25.2696 15.3621 25.4471C15.2279 25.6204 15.1608 25.8542 15.1608 26.1487C15.1608 26.4432 15.2301 26.6792 15.3686 26.8567C15.5072 27.03 15.6913 27.1166 15.9208 27.1166ZM20.3258 28.2079C19.9188 28.2079 19.568 28.1148 19.2735 27.9285C18.979 27.738 18.7755 27.4847 18.6629 27.1685L19.5788 26.7788C19.6394 26.9433 19.7347 27.0733 19.8646 27.1685C19.9945 27.2595 20.1439 27.3049 20.3128 27.3049C20.4687 27.3049 20.5857 27.279 20.6636 27.227C20.7416 27.175 20.7805 27.1036 20.7805 27.0126C20.7805 26.9217 20.7307 26.8459 20.6311 26.7853C20.5359 26.7203 20.3908 26.6662 20.1959 26.6229C19.7325 26.5189 19.3709 26.3674 19.1111 26.1682C18.8556 25.969 18.7278 25.7026 18.7278 25.3692C18.7278 25.1223 18.7906 24.908 18.9162 24.7261C19.0461 24.5399 19.228 24.397 19.4619 24.2974C19.6957 24.1978 19.9664 24.148 20.2739 24.148C20.6506 24.148 20.9841 24.2411 21.2742 24.4273C21.5644 24.6135 21.7722 24.8647 21.8978 25.1808L20.9884 25.5641C20.9105 25.4038 20.8087 25.2782 20.6831 25.1873C20.5575 25.092 20.4276 25.0444 20.2933 25.0444C20.1504 25.0444 20.04 25.0725 19.9621 25.1288C19.8884 25.1808 19.8516 25.2523 19.8516 25.3432C19.8516 25.4385 19.9014 25.5164 20.001 25.577C20.105 25.6377 20.2912 25.6983 20.5597 25.7589C21.4561 25.9538 21.9043 26.3565 21.9043 26.9672C21.9043 27.2053 21.835 27.4197 21.6965 27.6102C21.5622 27.7965 21.3738 27.9415 21.1313 28.0455C20.8931 28.1537 20.6246 28.2079 20.3258 28.2079Z" fill="black"/>
<path d="M4.49036 50.1038H3.41821L3.07812 49.1065H1.45836L1.11827 50.1038H0.0518783L1.75234 45.4635H2.78414L4.49036 50.1038ZM2.25383 46.7893L1.78116 48.1612H2.75532L2.28841 46.7893H2.25383ZM5.24034 50.1038L5.18846 46.6625H6.2145V47.285H6.24909C6.49119 46.8162 6.91198 46.5818 7.51146 46.5818H7.54605V47.5329H7.49417C7.04456 47.5329 6.71792 47.6078 6.51424 47.7577C6.31442 47.9037 6.2145 48.1266 6.2145 48.4264V50.1038H5.24034ZM10.459 47.5848H9.57133V48.8529C9.57133 48.972 9.60591 49.0662 9.67509 49.1354C9.7481 49.2007 9.84993 49.2334 9.98059 49.2334C10.1151 49.2334 10.2515 49.2122 10.3899 49.1699V50.0922C10.1785 50.1576 9.9633 50.1902 9.74426 50.1902C9.3715 50.1902 9.08521 50.0884 8.88538 49.8847C8.6894 49.6772 8.5914 49.3832 8.5914 49.0028V47.5848H8.06109V46.6625H8.5914V45.6999H9.57133V46.6625H10.459V47.5848ZM12.3562 45.6999C12.3562 45.8766 12.3024 46.0169 12.1948 46.1207C12.091 46.2244 11.9508 46.2763 11.774 46.2763C11.6011 46.2763 11.4627 46.2244 11.359 46.1207C11.2591 46.0169 11.2091 45.8766 11.2091 45.6999C11.2091 45.5269 11.2591 45.3886 11.359 45.2848C11.4627 45.1811 11.6011 45.1292 11.774 45.1292C11.9508 45.1292 12.091 45.1811 12.1948 45.2848C12.3024 45.3886 12.3562 45.5269 12.3562 45.6999ZM12.2697 46.6625V50.1038H11.2956V46.6625H12.2697ZM14.631 50.1845C14.2698 50.1845 13.9585 50.1018 13.6972 49.9366C13.4359 49.7675 13.2553 49.5427 13.1553 49.2622L13.9681 48.9163C14.0219 49.0623 14.1065 49.1776 14.2217 49.2622C14.337 49.3429 14.4696 49.3832 14.6195 49.3832C14.7578 49.3832 14.8616 49.3602 14.9307 49.3141C14.9999 49.2679 15.0345 49.2045 15.0345 49.1238C15.0345 49.0431 14.9903 48.9759 14.9019 48.9221C14.8174 48.8644 14.6886 48.8164 14.5157 48.778C14.1045 48.6857 13.7837 48.5512 13.5531 48.3745C13.3264 48.1977 13.213 47.9614 13.213 47.6655C13.213 47.4464 13.2687 47.2562 13.3802 47.0948C13.4954 46.9296 13.6568 46.8028 13.8644 46.7144C14.0719 46.626 14.312 46.5818 14.5849 46.5818C14.9192 46.5818 15.2151 46.6644 15.4726 46.8297C15.7301 46.9949 15.9145 47.2178 16.0259 47.4983L15.219 47.8384C15.1498 47.6962 15.0595 47.5848 14.948 47.5041C14.8366 47.4195 14.7213 47.3773 14.6022 47.3773C14.4754 47.3773 14.3774 47.4022 14.3082 47.4522C14.2429 47.4983 14.2102 47.5617 14.2102 47.6424C14.2102 47.727 14.2544 47.7961 14.3428 47.8499C14.435 47.9037 14.6003 47.9575 14.8385 48.0113C15.634 48.1843 16.0317 48.5416 16.0317 49.0835C16.0317 49.2948 15.9702 49.4851 15.8473 49.6541C15.7281 49.8194 15.561 49.9481 15.3458 50.0403C15.1344 50.1364 14.8962 50.1845 14.631 50.1845ZM19.0039 47.5848H18.1162V48.8529C18.1162 48.972 18.1508 49.0662 18.2199 49.1354C18.2929 49.2007 18.3948 49.2334 18.5254 49.2334C18.6599 49.2334 18.7964 49.2122 18.9347 49.1699V50.0922C18.7233 50.1576 18.5081 50.1902 18.2891 50.1902C17.9163 50.1902 17.63 50.0884 17.4302 49.8847C17.2342 49.6772 17.1362 49.3832 17.1362 49.0028V47.5848H16.6059V46.6625H17.1362V45.6999H18.1162V46.6625H19.0039V47.5848ZM21.0406 50.1845C20.6794 50.1845 20.3681 50.1018 20.1068 49.9366C19.8455 49.7675 19.6648 49.5427 19.5649 49.2622L20.3777 48.9163C20.4315 49.0623 20.516 49.1776 20.6313 49.2622C20.7466 49.3429 20.8792 49.3832 21.0291 49.3832C21.1674 49.3832 21.2712 49.3602 21.3403 49.3141C21.4095 49.2679 21.4441 49.2045 21.4441 49.1238C21.4441 49.0431 21.3999 48.9759 21.3115 48.9221C21.227 48.8644 21.0982 48.8164 20.9253 48.778C20.5141 48.6857 20.1932 48.5512 19.9627 48.3745C19.7359 48.1977 19.6226 47.9614 19.6226 47.6655C19.6226 47.4464 19.6783 47.2562 19.7897 47.0948C19.905 46.9296 20.0664 46.8028 20.2739 46.7144C20.4815 46.626 20.7216 46.5818 20.9945 46.5818C21.3288 46.5818 21.6247 46.6644 21.8822 46.8297C22.1396 46.9949 22.3241 47.2178 22.4355 47.4983L21.6285 47.8384C21.5594 47.6962 21.4691 47.5848 21.3576 47.5041C21.2462 47.4195 21.1309 47.3773 21.0118 47.3773C20.885 47.3773 20.787 47.4022 20.7178 47.4522C20.6525 47.4983 20.6198 47.5617 20.6198 47.6424C20.6198 47.727 20.664 47.7961 20.7524 47.8499C20.8446 47.9037 21.0098 47.9575 21.2481 48.0113C22.0436 48.1843 22.4413 48.5416 22.4413 49.0835C22.4413 49.2948 22.3798 49.4851 22.2568 49.6541C22.1377 49.8194 21.9706 49.9481 21.7554 50.0403C21.544 50.1364 21.3057 50.1845 21.0406 50.1845Z" fill="black"/>
<path d="M4.25435 72.0983H3.23855L2.91633 71.1535H1.38171L1.05949 72.0983H0.0491517L1.66024 67.702H2.63781L4.25435 72.0983ZM2.13537 68.9581L1.68754 70.2578H2.6105L2.16814 68.9581H2.13537ZM4.91577 67.702H5.83873V71.0333C5.83873 71.1644 5.90426 71.23 6.03533 71.23H6.19371V72.1038H5.74042C5.47464 72.1038 5.27075 72.0382 5.12876 71.9072C4.98676 71.7761 4.91577 71.5868 4.91577 71.3392V67.702ZM6.8748 72.0983V67.702H7.79776V69.2202H7.83052C7.92883 69.0782 8.05444 68.9672 8.20735 68.8871C8.36027 68.8033 8.52229 68.7614 8.69341 68.7614C8.95191 68.7614 9.17764 68.8306 9.37061 68.969C9.56722 69.1037 9.71831 69.2967 9.8239 69.5479C9.92948 69.7991 9.98228 70.094 9.98228 70.4326C9.98228 70.7858 9.92948 71.0934 9.8239 71.3556C9.71831 71.6177 9.56722 71.8198 9.37061 71.9618C9.174 72.1038 8.94463 72.1748 8.68249 72.1748C8.50772 72.1748 8.34571 72.1329 8.19643 72.0492C8.0508 71.9691 7.92883 71.8562 7.83052 71.7106H7.79776V72.0983H6.8748ZM7.77591 70.4708C7.77591 70.7257 7.83234 70.9296 7.94521 71.0825C8.05808 71.2318 8.20735 71.3064 8.39304 71.3064C8.58964 71.3064 8.7462 71.2318 8.86271 71.0825C8.97922 70.9296 9.03747 70.7257 9.03747 70.4708C9.03747 70.2123 8.98104 70.0084 8.86817 69.8592C8.7553 69.7063 8.60421 69.6298 8.41488 69.6298C8.22192 69.6298 8.06718 69.7063 7.95067 69.8592C7.83416 70.0084 7.77591 70.2123 7.77591 70.4708ZM13.6313 68.8379V72.0983H12.7083V71.6832H12.6756C12.5845 71.8398 12.4626 71.96 12.3096 72.0437C12.1604 72.1311 11.9856 72.1748 11.7854 72.1748C11.4613 72.1748 11.2065 72.071 11.0208 71.8635C10.8387 71.6523 10.7477 71.3592 10.7477 70.9842V68.8379H11.6707V70.7712C11.6707 70.935 11.7144 71.0661 11.8017 71.1644C11.8891 71.2627 12.0038 71.3119 12.1458 71.3119C12.3169 71.3119 12.4535 71.2591 12.5554 71.1535C12.6573 71.0443 12.7083 70.8986 12.7083 70.7166V68.8379H13.6313ZM14.5635 72.0983V68.8379H15.4865V69.253H15.5192C15.6139 69.0928 15.7359 68.9708 15.8851 68.8871C16.0344 68.8033 16.2055 68.7614 16.3985 68.7614C16.5842 68.7614 16.7426 68.8051 16.8736 68.8925C17.0083 68.9763 17.1085 69.1 17.174 69.2639H17.2068C17.3233 69.0964 17.4616 68.9708 17.6218 68.8871C17.782 68.8033 17.9732 68.7614 18.1953 68.7614C18.5011 68.7614 18.7396 68.8652 18.9107 69.0727C19.0818 69.2803 19.1674 69.5734 19.1674 69.952V72.0983H18.2444V70.165C18.2444 69.9939 18.208 69.861 18.1352 69.7663C18.066 69.6717 17.9641 69.6243 17.8294 69.6243C17.6692 69.6243 17.5454 69.6771 17.458 69.7827C17.3706 69.8847 17.3269 70.0303 17.3269 70.2196V72.0983H16.404V70.165C16.404 69.9939 16.3675 69.861 16.2947 69.7663C16.2256 69.6717 16.1236 69.6243 15.9889 69.6243C15.8287 69.6243 15.7049 69.6771 15.6175 69.7827C15.5301 69.8847 15.4865 70.0303 15.4865 70.2196V72.0983H14.5635ZM21.3143 72.1748C20.9721 72.1748 20.6772 72.0965 20.4296 71.9399C20.182 71.7797 20.0109 71.5667 19.9163 71.301L20.6863 70.9733C20.7373 71.1116 20.8174 71.2209 20.9266 71.301C21.0358 71.3774 21.1614 71.4156 21.3034 71.4156C21.4345 71.4156 21.5328 71.3938 21.5983 71.3501C21.6639 71.3064 21.6966 71.2463 21.6966 71.1699C21.6966 71.0934 21.6548 71.0297 21.571 70.9787C21.4909 70.9241 21.369 70.8786 21.2051 70.8422C20.8155 70.7548 20.5115 70.6274 20.2931 70.4599C20.0783 70.2924 19.9709 70.0685 19.9709 69.7882C19.9709 69.5806 20.0237 69.4004 20.1292 69.2475C20.2385 69.0909 20.3914 68.9708 20.588 68.8871C20.7846 68.8033 21.0122 68.7614 21.2707 68.7614C21.5874 68.7614 21.8678 68.8397 22.1117 68.9963C22.3556 69.1528 22.5304 69.364 22.636 69.6298L21.8714 69.952C21.8059 69.8173 21.7203 69.7117 21.6147 69.6353C21.5091 69.5552 21.3999 69.5151 21.287 69.5151C21.1669 69.5151 21.074 69.5388 21.0085 69.5861C20.9466 69.6298 20.9157 69.6899 20.9157 69.7663C20.9157 69.8464 20.9575 69.912 21.0413 69.9629C21.1287 70.0139 21.2852 70.0649 21.511 70.1159C22.2646 70.2797 22.6414 70.6183 22.6414 71.1317C22.6414 71.3319 22.5832 71.5121 22.4667 71.6723C22.3538 71.8289 22.1954 71.9508 21.9915 72.0382C21.7913 72.1293 21.5656 72.1748 21.3143 72.1748Z" fill="black"/>
</svg>
