<svg width="11" height="13" viewBox="0 0 11 13" fill="none" xmlns="http://www.w3.org/2000/svg">
<path d="M9.13331 8.07044C9.13331 8.5048 9.18802 8.92926 9.42093 9.29049L9.57639 9.53132C9.81256 9.8964 9.55852 10.3857 9.13331 10.3857H1.53373C1.10853 10.3857 0.853942 9.8964 1.09065 9.53132L1.24611 9.29049C1.47957 8.92926 1.53373 8.50535 1.53373 8.07099V5.98717C1.54619 4.17771 3.11865 2.68384 4.92998 2.68824L5.72406 2.68989C6.75406 2.69239 7.70805 3.17314 8.3434 3.92024M6.95852 10.3857C6.95852 10.8232 6.78731 11.2428 6.48257 11.5521C6.17782 11.8614 5.7645 12.0352 5.33352 12.0352C4.90254 12.0352 4.48922 11.8614 4.18447 11.5521C3.87973 11.2428 3.70852 10.8232 3.70852 10.3857" stroke="#333333" stroke-width="1.08333" stroke-linecap="round" stroke-linejoin="round"/>
<path d="M5.33351 1.03882C5.62083 1.03882 5.89638 1.15467 6.09954 1.3609C6.3027 1.56712 6.41684 1.84682 6.41684 2.13846V2.68829H4.25018V2.13846C4.25018 1.84682 4.36432 1.56712 4.56748 1.3609C4.77065 1.15467 5.04619 1.03882 5.33351 1.03882Z" stroke="#333333" stroke-width="1.08333" stroke-linecap="round" stroke-linejoin="round"/>
</svg>
