<svg width="11" height="11" viewBox="0 0 11 11" fill="none" xmlns="http://www.w3.org/2000/svg">
<path d="M11 0H0V11H11V0Z" fill="white" fill-opacity="0.01"/>
<path d="M4.19004 9.89332C3.42208 9.66468 2.7385 9.24019 2.19722 8.67775C2.39915 8.43843 2.52083 8.12921 2.52083 7.79158C2.52083 7.03219 1.90523 6.41658 1.14583 6.41658C1.0999 6.41658 1.05449 6.41883 1.00971 6.42323C0.948703 6.12499 0.916668 5.81619 0.916668 5.49992C0.916668 5.02082 0.990178 4.55889 1.12654 4.12478C1.13296 4.12487 1.13939 4.12492 1.14583 4.12492C1.90523 4.12492 2.52083 3.50931 2.52083 2.74992C2.52083 2.53191 2.4701 2.32575 2.37981 2.14262C2.90985 1.64977 3.55678 1.28094 4.27444 1.08228C4.50184 1.52802 4.96529 1.83325 5.5 1.83325C6.03472 1.83325 6.49816 1.52802 6.72556 1.08228C7.44322 1.28094 8.09016 1.64977 8.6202 2.14262C8.52991 2.32575 8.47917 2.53191 8.47917 2.74992C8.47917 3.50931 9.09478 4.12492 9.85417 4.12492C9.86061 4.12492 9.86705 4.12487 9.87346 4.12478C10.0098 4.55889 10.0833 5.02082 10.0833 5.49992C10.0833 5.81619 10.0513 6.12499 9.99029 6.42323C9.94551 6.41883 9.90012 6.41658 9.85417 6.41658C9.09478 6.41658 8.47917 7.03219 8.47917 7.79158C8.47917 8.12921 8.60086 8.43843 8.80277 8.67775C8.26151 9.24019 7.57792 9.66468 6.80996 9.89332C6.63273 9.33887 6.11325 8.93742 5.5 8.93742C4.88675 8.93742 4.36728 9.33887 4.19004 9.89332Z" stroke="#333333" stroke-width="0.916667" stroke-linejoin="round"/>
<path d="M5.5 7.10409C6.38596 7.10409 7.10417 6.38588 7.10417 5.49992C7.10417 4.61396 6.38596 3.89575 5.5 3.89575C4.61404 3.89575 3.89583 4.61396 3.89583 5.49992C3.89583 6.38588 4.61404 7.10409 5.5 7.10409Z" stroke="#333333" stroke-width="0.916667" stroke-linejoin="round"/>
</svg>
